<svg width="349" height="77" viewBox="0 0 349 77" fill="none" xmlns="http://www.w3.org/2000/svg">
<path d="M328.117 2H20.8831C10.4543 2 2 13.6231 2 27.9609V49.0102C2 63.348 10.4543 74.9711 20.8831 74.9711H328.117C338.546 74.9711 347 63.348 347 49.0102V27.9609C347 13.6231 338.546 2 328.117 2Z" fill="white" stroke="#FD8218" stroke-width="3"/>
<path d="M293 15.9946C279.2 15.9946 268 27.1902 268 40.9847C268 54.7793 279.2 65.9748 293 65.9748C306.8 65.9748 318 54.7793 318 40.9847C318 27.1902 306.8 15.9946 293 15.9946ZM304.6 32.9879C304.225 36.9363 302.6 46.5325 301.775 50.9508C301.425 52.83 300.725 53.4598 300.075 53.5298C298.625 53.6598 297.525 52.5802 296.125 51.6606C293.925 50.2111 292.675 49.3115 290.55 47.912C288.075 46.2827 289.675 45.3829 291.1 43.9335C291.475 43.5637 297.875 37.736 298 37.2062C298.017 37.1362 298.015 37.0463 297.993 36.9663C297.971 36.8963 297.931 36.8164 297.875 36.7664C297.725 36.6365 297.525 36.6864 297.35 36.7064C297.125 36.7564 293.625 39.0854 286.8 43.6836C285.8 44.3534 284.9 44.7032 284.1 44.6832C283.2 44.6532 281.5 44.1835 280.225 43.7537C278.65 43.2539 277.425 42.9839 277.525 42.1043C277.575 41.6545 278.2 41.2046 279.375 40.7348C286.675 37.5561 291.525 35.4669 293.95 34.4673C300.9 31.5684 302.325 31.0586 303.275 31.0586C303.475 31.0586 303.95 31.1086 304.25 31.3585C304.5 31.5585 304.575 31.8384 304.6 32.0383C304.575 32.1883 304.625 32.638 304.6 32.9879Z" fill="#FD8218"/>
<path d="M202.5 23.2719C200.208 20.9528 197.478 19.1135 194.469 17.874C191.46 16.6245 188.233 15.9847 184.975 15.9947C171.325 15.9947 160.2 27.1204 160.2 40.765C160.2 45.1332 161.35 49.3815 163.5 53.1301L160 65.975L173.125 62.5264C176.75 64.5056 180.825 65.5551 184.975 65.5551C198.625 65.5551 209.75 54.4296 209.75 40.785C209.75 34.1676 207.175 27.94 202.5 23.2719ZM184.975 61.3568C181.275 61.3568 177.65 60.3572 174.475 58.4779L173.725 58.0282L165.925 60.0773L168 52.4803L167.5 51.7106C165.444 48.4219 164.353 44.6334 164.35 40.765C164.35 29.4195 173.6 20.1731 184.95 20.1731C190.45 20.1731 195.625 22.3222 199.5 26.2207C201.419 28.1299 202.939 30.3991 203.973 32.8981C205.008 35.3971 205.535 38.0761 205.525 40.785C205.575 52.1305 196.325 61.3568 184.975 61.3568ZM196.275 45.9629C195.65 45.663 192.6 44.1635 192.05 43.9336C191.475 43.7337 191.075 43.6338 190.65 44.2336C190.225 44.8633 189.05 46.2628 188.7 46.6627C188.35 47.0825 187.975 47.1324 187.35 46.8125C186.725 46.5126 184.725 45.8329 182.375 43.7338C180.525 42.0844 179.3 40.0652 178.925 39.4354C178.575 38.8157 178.875 38.4859 179.2 38.166C179.475 37.8861 179.825 37.4362 180.125 37.0864C180.425 36.7365 180.55 36.4666 180.75 36.0668C180.95 35.6369 180.85 35.2871 180.7 34.9872C180.55 34.6873 179.3 31.6386 178.8 30.3891C178.3 29.1895 177.775 29.3394 177.4 29.3194H176.2C175.775 29.3194 175.125 29.4694 174.55 30.0891C174 30.7189 172.4 32.2184 172.4 35.2671C172.4 38.3159 174.625 41.2648 174.925 41.6646C175.225 42.0845 179.3 48.332 185.5 51.0109C186.975 51.6607 188.125 52.0304 189.025 52.3103C190.5 52.7801 191.85 52.7102 192.925 52.5602C194.125 52.3803 196.6 51.0609 197.1 49.6114C197.625 48.162 197.625 46.9326 197.45 46.6627C197.275 46.3828 196.9 46.2627 196.275 45.9629Z" fill="#FD8218"/>
<path d="M102 40.9847C102 27.1902 90.8 15.9946 77 15.9946C63.2 15.9946 52 27.1902 52 40.9847C52 53.0799 60.6 63.146 72 65.475V48.4818H67V40.9847H72V34.7372C72 29.9191 75.925 25.9907 80.75 25.9907H87V33.4877H82C80.625 33.4877 79.5 34.6073 79.5 35.9867V40.9847H87V48.4818H79.5V65.8549C92.125 64.6054 102 53.9596 102 40.9847Z" fill="#FD8218"/>
</svg>
