<svg width="615" height="464" viewBox="0 0 615 464" fill="none" xmlns="http://www.w3.org/2000/svg">
<g clip-path="url(#clip0_433_6)">
<path d="M358.236 81.7977C369.762 81.7977 379.106 72.1049 379.106 60.1481C379.106 48.1914 369.762 38.4985 358.236 38.4985C346.71 38.4985 337.366 48.1914 337.366 60.1481C337.366 72.1049 346.71 81.7977 358.236 81.7977Z" fill="#F2F2F2"/>
<path d="M520.132 403.103C551.153 378.592 565.969 337.405 556.694 298.115C556.463 297.139 556.22 296.165 555.964 295.193C549.814 271.871 534.601 249.705 512.427 242.253C493.809 235.996 473.487 240.808 454.064 238.32C415.935 233.435 386.374 201.432 365.575 167.925C344.775 134.417 328.79 96.91 301.152 69.2278C255.595 23.5984 181.28 13.7744 124.796 43.4757C68.3119 73.1771 32.3321 139.072 33.8666 204.745C35.4011 270.417 72.9841 333.205 127.564 366.518C147.614 378.755 170.805 387.425 193.884 384.391C213.909 381.759 232.105 370.597 252.036 367.283C283.372 362.073 314.509 376.771 341.612 393.898C368.716 411.024 394.896 431.325 425.695 439.265C455.601 446.975 492.652 424.815 520.132 403.103Z" fill="#F2F2F2"/>
<path d="M475.562 44.8548C474.882 44.3845 474.194 43.9385 473.514 43.4845C453.857 30.443 432.788 19.8482 410.742 11.9191L405.63 85.0716H373.224V1.24056C371.184 0.802714 369.128 0.389195 367.072 0V85.0716H328.562C307.361 85.0716 287.029 76.3351 272.038 60.7841C257.047 45.233 248.625 24.1413 248.625 2.14878C246.561 2.61095 244.513 3.10548 242.465 3.63251V85.0716H211.099L206.229 15.3165C183.573 24.3298 162.065 36.1828 142.183 50.6116C141.839 50.8549 141.495 51.1062 141.159 51.3495C139.431 52.6062 137.727 53.8873 136.031 55.1847V334.262H228.474L226.841 310.789L217.852 181.908H398.869L389.88 310.789L388.247 334.262H479.666V47.6764C478.306 46.7197 476.938 45.7791 475.562 44.8548ZM242.465 160.624H216.367L211.544 91.4609H242.465V160.624ZM367.072 160.624H323.239V159.254C323.239 158.595 323.114 157.943 322.87 157.334C322.627 156.726 322.271 156.173 321.821 155.708C321.372 155.242 320.838 154.873 320.251 154.622C319.664 154.371 319.035 154.242 318.4 154.243H299.344C298.71 154.243 298.082 154.372 297.496 154.624C296.909 154.876 296.377 155.245 295.928 155.71C295.48 156.175 295.124 156.728 294.881 157.336C294.638 157.944 294.514 158.596 294.514 159.254V160.624H248.625V91.4609H367.072V160.624ZM373.224 160.624V91.4609H405.185L400.362 160.624H373.224Z" fill="#3F3D56"/>
<path d="M0 352.133C6.79019 360.48 14.1346 368.323 21.9794 375.607L593.021 376.417C600.865 369.134 608.21 361.29 615 352.944L0 352.133Z" fill="#3F3D56"/>
<path d="M387.242 276.97V346.461C387.242 347.347 387.582 348.196 388.185 348.822C388.789 349.448 389.608 349.8 390.461 349.801H489.731C490.585 349.8 491.404 349.448 492.007 348.822C492.611 348.196 492.95 347.347 492.951 346.461V276.97C492.949 276.086 492.609 275.238 492.006 274.612C491.402 273.987 490.584 273.635 489.731 273.634H390.461C389.608 273.635 388.791 273.987 388.187 274.612C387.584 275.238 387.244 276.086 387.242 276.97Z" fill="#3F3D56"/>
<path d="M389.57 277.835V345.604C389.571 346.077 389.753 346.531 390.075 346.865C390.398 347.2 390.835 347.388 391.291 347.389H488.905C489.361 347.388 489.798 347.2 490.121 346.865C490.443 346.531 490.625 346.077 490.625 345.604V277.835C490.625 277.361 490.444 276.907 490.122 276.572C489.799 276.236 489.361 276.047 488.905 276.046H391.291C390.834 276.047 390.397 276.236 390.074 276.572C389.752 276.907 389.57 277.361 389.57 277.835Z" fill="#FD8218"/>
<path d="M385.166 360.013C385.348 360.25 385.579 360.441 385.842 360.571C386.105 360.702 386.393 360.769 386.685 360.767H492.98C493.271 360.767 493.558 360.699 493.82 360.569C494.082 360.44 494.313 360.251 494.497 360.016C494.68 359.782 494.81 359.509 494.879 359.216C494.947 358.922 494.951 358.617 494.892 358.322L493.242 350.192C493.173 349.86 493.026 349.552 492.813 349.294C492.601 349.037 492.329 348.839 492.024 348.718C491.803 348.628 491.567 348.582 491.33 348.582H388.328C388.091 348.582 387.855 348.628 387.634 348.718C387.329 348.839 387.057 349.037 386.845 349.294C386.632 349.552 386.485 349.86 386.416 350.192L384.766 358.322C384.708 358.617 384.713 358.922 384.782 359.214C384.851 359.507 384.982 359.78 385.166 360.013Z" fill="#2F2E41"/>
<path d="M487.682 352.084H490.193C490.403 352.084 490.574 351.907 490.574 351.688V350.442C490.574 350.224 490.403 350.046 490.193 350.046H487.682C487.471 350.046 487.3 350.224 487.3 350.442V351.688C487.3 351.907 487.471 352.084 487.682 352.084Z" fill="#3F3D56"/>
<path d="M481.135 352.084H483.646C483.856 352.084 484.027 351.907 484.027 351.688V350.442C484.027 350.224 483.856 350.046 483.646 350.046H481.135C480.924 350.046 480.754 350.224 480.754 350.442V351.688C480.754 351.907 480.924 352.084 481.135 352.084Z" fill="#3F3D56"/>
<path d="M474.587 352.084H477.098C477.309 352.084 477.479 351.907 477.479 351.688V350.442C477.479 350.224 477.309 350.046 477.098 350.046H474.587C474.377 350.046 474.206 350.224 474.206 350.442V351.688C474.206 351.907 474.377 352.084 474.587 352.084Z" fill="#3F3D56"/>
<path d="M468.039 352.084H470.55C470.761 352.084 470.932 351.907 470.932 351.688V350.442C470.932 350.224 470.761 350.046 470.55 350.046H468.039C467.829 350.046 467.658 350.224 467.658 350.442V351.688C467.658 351.907 467.829 352.084 468.039 352.084Z" fill="#3F3D56"/>
<path d="M461.492 352.084H464.002C464.213 352.084 464.384 351.907 464.384 351.688V350.442C464.384 350.224 464.213 350.046 464.002 350.046H461.492C461.281 350.046 461.11 350.224 461.11 350.442V351.688C461.11 351.907 461.281 352.084 461.492 352.084Z" fill="#3F3D56"/>
<path d="M454.944 352.084H457.454C457.665 352.084 457.836 351.907 457.836 351.688V350.442C457.836 350.224 457.665 350.046 457.454 350.046H454.944C454.733 350.046 454.562 350.224 454.562 350.442V351.688C454.562 351.907 454.733 352.084 454.944 352.084Z" fill="#3F3D56"/>
<path d="M448.396 352.084H450.907C451.117 352.084 451.288 351.907 451.288 351.688V350.442C451.288 350.224 451.117 350.046 450.907 350.046H448.396C448.185 350.046 448.014 350.224 448.014 350.442V351.688C448.014 351.907 448.185 352.084 448.396 352.084Z" fill="#3F3D56"/>
<path d="M441.848 352.084H444.359C444.57 352.084 444.741 351.907 444.741 351.688V350.442C444.741 350.224 444.57 350.046 444.359 350.046H441.848C441.638 350.046 441.467 350.224 441.467 350.442V351.688C441.467 351.907 441.638 352.084 441.848 352.084Z" fill="#3F3D56"/>
<path d="M435.3 352.084H437.811C438.022 352.084 438.192 351.907 438.192 351.688V350.442C438.192 350.224 438.022 350.046 437.811 350.046H435.3C435.089 350.046 434.919 350.224 434.919 350.442V351.688C434.919 351.907 435.089 352.084 435.3 352.084Z" fill="#3F3D56"/>
<path d="M428.754 352.084H431.264C431.475 352.084 431.646 351.907 431.646 351.688V350.442C431.646 350.224 431.475 350.046 431.264 350.046H428.754C428.543 350.046 428.372 350.224 428.372 350.442V351.688C428.372 351.907 428.543 352.084 428.754 352.084Z" fill="#3F3D56"/>
<path d="M422.206 352.084H424.717C424.927 352.084 425.098 351.907 425.098 351.688V350.442C425.098 350.224 424.927 350.046 424.717 350.046H422.206C421.995 350.046 421.824 350.224 421.824 350.442V351.688C421.824 351.907 421.995 352.084 422.206 352.084Z" fill="#3F3D56"/>
<path d="M415.658 352.084H418.169C418.379 352.084 418.55 351.907 418.55 351.688V350.442C418.55 350.224 418.379 350.046 418.169 350.046H415.658C415.447 350.046 415.276 350.224 415.276 350.442V351.688C415.276 351.907 415.447 352.084 415.658 352.084Z" fill="#3F3D56"/>
<path d="M409.11 352.084H411.621C411.832 352.084 412.002 351.907 412.002 351.688V350.442C412.002 350.224 411.832 350.046 411.621 350.046H409.11C408.899 350.046 408.729 350.224 408.729 350.442V351.688C408.729 351.907 408.899 352.084 409.11 352.084Z" fill="#3F3D56"/>
<path d="M402.562 352.084H405.073C405.284 352.084 405.455 351.907 405.455 351.688V350.442C405.455 350.224 405.284 350.046 405.073 350.046H402.562C402.352 350.046 402.181 350.224 402.181 350.442V351.688C402.181 351.907 402.352 352.084 402.562 352.084Z" fill="#3F3D56"/>
<path d="M396.014 352.084H398.525C398.736 352.084 398.907 351.907 398.907 351.688V350.442C398.907 350.224 398.736 350.046 398.525 350.046H396.014C395.804 350.046 395.633 350.224 395.633 350.442V351.688C395.633 351.907 395.804 352.084 396.014 352.084Z" fill="#3F3D56"/>
<path d="M389.467 352.084H391.977C392.188 352.084 392.359 351.907 392.359 351.688V350.442C392.359 350.224 392.188 350.046 391.977 350.046H389.467C389.256 350.046 389.085 350.224 389.085 350.442V351.688C389.085 351.907 389.256 352.084 389.467 352.084Z" fill="#3F3D56"/>
<path d="M487.76 355.48H490.271C490.481 355.48 490.652 355.303 490.652 355.085V353.839C490.652 353.62 490.481 353.443 490.271 353.443H487.76C487.549 353.443 487.378 353.62 487.378 353.839V355.085C487.378 355.303 487.549 355.48 487.76 355.48Z" fill="#3F3D56"/>
<path d="M481.212 355.48H483.723C483.934 355.48 484.104 355.303 484.104 355.085V353.839C484.104 353.62 483.934 353.443 483.723 353.443H481.212C481.001 353.443 480.831 353.62 480.831 353.839V355.085C480.831 355.303 481.001 355.48 481.212 355.48Z" fill="#3F3D56"/>
<path d="M474.664 355.48H477.175C477.386 355.48 477.557 355.303 477.557 355.085V353.839C477.557 353.62 477.386 353.443 477.175 353.443H474.664C474.454 353.443 474.283 353.62 474.283 353.839V355.085C474.283 355.303 474.454 355.48 474.664 355.48Z" fill="#3F3D56"/>
<path d="M468.117 355.48H470.627C470.838 355.48 471.009 355.303 471.009 355.085V353.839C471.009 353.62 470.838 353.443 470.627 353.443H468.117C467.906 353.443 467.735 353.62 467.735 353.839V355.085C467.735 355.303 467.906 355.48 468.117 355.48Z" fill="#3F3D56"/>
<path d="M461.569 355.48H464.079C464.29 355.48 464.461 355.303 464.461 355.085V353.839C464.461 353.62 464.29 353.443 464.079 353.443H461.569C461.358 353.443 461.187 353.62 461.187 353.839V355.085C461.187 355.303 461.358 355.48 461.569 355.48Z" fill="#3F3D56"/>
<path d="M455.021 355.48H457.532C457.742 355.48 457.913 355.303 457.913 355.085V353.839C457.913 353.62 457.742 353.443 457.532 353.443H455.021C454.81 353.443 454.639 353.62 454.639 353.839V355.085C454.639 355.303 454.81 355.48 455.021 355.48Z" fill="#3F3D56"/>
<path d="M448.473 355.48H450.984C451.195 355.48 451.366 355.303 451.366 355.085V353.839C451.366 353.62 451.195 353.443 450.984 353.443H448.473C448.263 353.443 448.092 353.62 448.092 353.839V355.085C448.092 355.303 448.263 355.48 448.473 355.48Z" fill="#3F3D56"/>
<path d="M441.925 355.48H444.436C444.647 355.48 444.817 355.303 444.817 355.085V353.839C444.817 353.62 444.647 353.443 444.436 353.443H441.925C441.714 353.443 441.544 353.62 441.544 353.839V355.085C441.544 355.303 441.714 355.48 441.925 355.48Z" fill="#3F3D56"/>
<path d="M435.379 355.48H437.889C438.1 355.48 438.271 355.303 438.271 355.085V353.839C438.271 353.62 438.1 353.443 437.889 353.443H435.379C435.168 353.443 434.997 353.62 434.997 353.839V355.085C434.997 355.303 435.168 355.48 435.379 355.48Z" fill="#3F3D56"/>
<path d="M428.831 355.48H431.342C431.552 355.48 431.723 355.303 431.723 355.085V353.839C431.723 353.62 431.552 353.443 431.342 353.443H428.831C428.62 353.443 428.449 353.62 428.449 353.839V355.085C428.449 355.303 428.62 355.48 428.831 355.48Z" fill="#3F3D56"/>
<path d="M422.283 355.48H424.794C425.004 355.48 425.175 355.303 425.175 355.085V353.839C425.175 353.62 425.004 353.443 424.794 353.443H422.283C422.072 353.443 421.901 353.62 421.901 353.839V355.085C421.901 355.303 422.072 355.48 422.283 355.48Z" fill="#3F3D56"/>
<path d="M415.735 355.48H418.246C418.457 355.48 418.627 355.303 418.627 355.085V353.839C418.627 353.62 418.457 353.443 418.246 353.443H415.735C415.524 353.443 415.354 353.62 415.354 353.839V355.085C415.354 355.303 415.524 355.48 415.735 355.48Z" fill="#3F3D56"/>
<path d="M409.187 355.48H411.698C411.909 355.48 412.08 355.303 412.08 355.085V353.839C412.08 353.62 411.909 353.443 411.698 353.443H409.187C408.977 353.443 408.806 353.62 408.806 353.839V355.085C408.806 355.303 408.977 355.48 409.187 355.48Z" fill="#3F3D56"/>
<path d="M402.639 355.48H405.15C405.361 355.48 405.532 355.303 405.532 355.085V353.839C405.532 353.62 405.361 353.443 405.15 353.443H402.639C402.429 353.443 402.258 353.62 402.258 353.839V355.085C402.258 355.303 402.429 355.48 402.639 355.48Z" fill="#3F3D56"/>
<path d="M396.092 355.48H398.602C398.813 355.48 398.984 355.303 398.984 355.085V353.839C398.984 353.62 398.813 353.443 398.602 353.443H396.092C395.881 353.443 395.71 353.62 395.71 353.839V355.085C395.71 355.303 395.881 355.48 396.092 355.48Z" fill="#3F3D56"/>
<path d="M389.545 355.48H392.055C392.266 355.48 392.437 355.303 392.437 355.085V353.839C392.437 353.62 392.266 353.443 392.055 353.443H389.545C389.334 353.443 389.163 353.62 389.163 353.839V355.085C389.163 355.303 389.334 355.48 389.545 355.48Z" fill="#3F3D56"/>
<path d="M433.414 359.556H458.842C459.052 359.556 459.223 359.378 459.223 359.16V357.914C459.223 357.695 459.052 357.518 458.842 357.518H433.414C433.203 357.518 433.032 357.695 433.032 357.914V359.16C433.032 359.378 433.203 359.556 433.414 359.556Z" fill="#3F3D56"/>
<path d="M406.474 290.873H404.251C403.578 290.873 403.031 291.439 403.031 292.138C403.031 292.837 403.578 293.404 404.251 293.404H406.474C407.148 293.404 407.694 292.837 407.694 292.138C407.694 291.439 407.148 290.873 406.474 290.873Z" fill="white"/>
<path d="M431.895 290.873H429.672C428.998 290.873 428.452 291.439 428.452 292.138C428.452 292.837 428.998 293.404 429.672 293.404H431.895C432.568 293.404 433.115 292.837 433.115 292.138C433.115 291.439 432.568 290.873 431.895 290.873Z" fill="white"/>
<path d="M439.098 290.873H436.875C436.201 290.873 435.655 291.439 435.655 292.138C435.655 292.837 436.201 293.404 436.875 293.404H439.098C439.772 293.404 440.318 292.837 440.318 292.138C440.318 291.439 439.772 290.873 439.098 290.873Z" fill="white"/>
<path d="M424.98 290.661H411.166C410.492 290.661 409.945 291.228 409.945 291.927C409.945 292.626 410.492 293.193 411.166 293.193H424.98C425.654 293.193 426.2 292.626 426.2 291.927C426.2 291.228 425.654 290.661 424.98 290.661Z" fill="white"/>
<path d="M458.874 290.661H445.06C444.386 290.661 443.84 291.228 443.84 291.927C443.84 292.626 444.386 293.193 445.06 293.193H458.874C459.548 293.193 460.095 292.626 460.095 291.927C460.095 291.228 459.548 290.661 458.874 290.661Z" fill="white"/>
<path d="M413.253 296.586H411.03C410.356 296.586 409.81 297.153 409.81 297.852C409.81 298.551 410.356 299.117 411.03 299.117H413.253C413.927 299.117 414.473 298.551 414.473 297.852C414.473 297.153 413.927 296.586 413.253 296.586Z" fill="white"/>
<path d="M438.674 296.586H436.452C435.778 296.586 435.231 297.153 435.231 297.852C435.231 298.551 435.778 299.117 436.452 299.117H438.674C439.348 299.117 439.895 298.551 439.895 297.852C439.895 297.153 439.348 296.586 438.674 296.586Z" fill="white"/>
<path d="M445.876 296.586H443.653C442.979 296.586 442.433 297.153 442.433 297.852C442.433 298.551 442.979 299.117 443.653 299.117H445.876C446.55 299.117 447.096 298.551 447.096 297.852C447.096 297.153 446.55 296.586 445.876 296.586Z" fill="white"/>
<path d="M431.76 296.375H417.945C417.271 296.375 416.725 296.942 416.725 297.641C416.725 298.34 417.271 298.907 417.945 298.907H431.76C432.434 298.907 432.98 298.34 432.98 297.641C432.98 296.942 432.434 296.375 431.76 296.375Z" fill="white"/>
<path d="M465.654 296.375H451.84C451.166 296.375 450.62 296.942 450.62 297.641C450.62 298.34 451.166 298.907 451.84 298.907H465.654C466.328 298.907 466.874 298.34 466.874 297.641C466.874 296.942 466.328 296.375 465.654 296.375Z" fill="white"/>
<path d="M420.032 302.3H417.809C417.135 302.3 416.589 302.866 416.589 303.566C416.589 304.265 417.135 304.831 417.809 304.831H420.032C420.706 304.831 421.252 304.265 421.252 303.566C421.252 302.866 420.706 302.3 420.032 302.3Z" fill="white"/>
<path d="M445.453 302.3H443.23C442.557 302.3 442.01 302.866 442.01 303.566C442.01 304.265 442.557 304.831 443.23 304.831H445.453C446.127 304.831 446.673 304.265 446.673 303.566C446.673 302.866 446.127 302.3 445.453 302.3Z" fill="white"/>
<path d="M452.656 302.3H450.433C449.759 302.3 449.213 302.866 449.213 303.566C449.213 304.265 449.759 304.831 450.433 304.831H452.656C453.33 304.831 453.876 304.265 453.876 303.566C453.876 302.866 453.33 302.3 452.656 302.3Z" fill="white"/>
<path d="M438.539 302.088H424.724C424.05 302.088 423.504 302.655 423.504 303.354C423.504 304.053 424.05 304.62 424.724 304.62H438.539C439.212 304.62 439.759 304.053 439.759 303.354C439.759 302.655 439.212 302.088 438.539 302.088Z" fill="white"/>
<path d="M472.433 302.088H458.619C457.945 302.088 457.398 302.655 457.398 303.354C457.398 304.053 457.945 304.62 458.619 304.62H472.433C473.107 304.62 473.653 304.053 473.653 303.354C473.653 302.655 473.107 302.088 472.433 302.088Z" fill="white"/>
<path d="M426.812 308.013H424.589C423.915 308.013 423.369 308.58 423.369 309.279C423.369 309.978 423.915 310.545 424.589 310.545H426.812C427.485 310.545 428.032 309.978 428.032 309.279C428.032 308.58 427.485 308.013 426.812 308.013Z" fill="white"/>
<path d="M452.232 308.013H450.009C449.335 308.013 448.789 308.58 448.789 309.279C448.789 309.978 449.335 310.545 450.009 310.545H452.232C452.906 310.545 453.452 309.978 453.452 309.279C453.452 308.58 452.906 308.013 452.232 308.013Z" fill="white"/>
<path d="M459.435 308.013H457.212C456.538 308.013 455.992 308.58 455.992 309.279C455.992 309.978 456.538 310.545 457.212 310.545H459.435C460.108 310.545 460.655 309.978 460.655 309.279C460.655 308.58 460.108 308.013 459.435 308.013Z" fill="white"/>
<path d="M445.317 307.802H431.503C430.829 307.802 430.283 308.369 430.283 309.068C430.283 309.767 430.829 310.334 431.503 310.334H445.317C445.991 310.334 446.537 309.767 446.537 309.068C446.537 308.369 445.991 307.802 445.317 307.802Z" fill="white"/>
<path d="M431.895 330.733H429.672C428.998 330.733 428.452 331.3 428.452 331.999C428.452 332.698 428.998 333.264 429.672 333.264H431.895C432.568 333.264 433.115 332.698 433.115 331.999C433.115 331.3 432.568 330.733 431.895 330.733Z" fill="white"/>
<path d="M439.098 330.733H436.875C436.201 330.733 435.655 331.3 435.655 331.999C435.655 332.698 436.201 333.264 436.875 333.264H439.098C439.772 333.264 440.318 332.698 440.318 331.999C440.318 331.3 439.772 330.733 439.098 330.733Z" fill="white"/>
<path d="M458.874 330.944H445.06C444.386 330.944 443.84 331.511 443.84 332.21C443.84 332.909 444.386 333.475 445.06 333.475H458.874C459.548 333.475 460.095 332.909 460.095 332.21C460.095 331.511 459.548 330.944 458.874 330.944Z" fill="white"/>
<path d="M406.474 330.733H404.251C403.578 330.733 403.031 331.3 403.031 331.999C403.031 332.698 403.578 333.264 404.251 333.264H406.474C407.148 333.264 407.694 332.698 407.694 331.999C407.694 331.3 407.148 330.733 406.474 330.733Z" fill="white"/>
<path d="M424.98 330.944H411.166C410.492 330.944 409.945 331.511 409.945 332.21C409.945 332.909 410.492 333.475 411.166 333.475H424.98C425.654 333.475 426.2 332.909 426.2 332.21C426.2 331.511 425.654 330.944 424.98 330.944Z" fill="white"/>
<path d="M413.253 325.02H411.03C410.356 325.02 409.81 325.586 409.81 326.285C409.81 326.984 410.356 327.551 411.03 327.551H413.253C413.927 327.551 414.473 326.984 414.473 326.285C414.473 325.586 413.927 325.02 413.253 325.02Z" fill="white"/>
<path d="M438.674 325.02H436.452C435.778 325.02 435.231 325.586 435.231 326.285C435.231 326.984 435.778 327.551 436.452 327.551H438.674C439.348 327.551 439.895 326.984 439.895 326.285C439.895 325.586 439.348 325.02 438.674 325.02Z" fill="white"/>
<path d="M445.876 325.02H443.653C442.979 325.02 442.433 325.586 442.433 326.285C442.433 326.984 442.979 327.551 443.653 327.551H445.876C446.55 327.551 447.096 326.984 447.096 326.285C447.096 325.586 446.55 325.02 445.876 325.02Z" fill="white"/>
<path d="M431.76 325.23H417.945C417.271 325.23 416.725 325.797 416.725 326.496C416.725 327.195 417.271 327.762 417.945 327.762H431.76C432.434 327.762 432.98 327.195 432.98 326.496C432.98 325.797 432.434 325.23 431.76 325.23Z" fill="white"/>
<path d="M420.032 319.306H417.809C417.135 319.306 416.589 319.872 416.589 320.571C416.589 321.27 417.135 321.837 417.809 321.837H420.032C420.706 321.837 421.252 321.27 421.252 320.571C421.252 319.872 420.706 319.306 420.032 319.306Z" fill="white"/>
<path d="M445.453 319.306H443.23C442.557 319.306 442.01 319.872 442.01 320.571C442.01 321.27 442.557 321.837 443.23 321.837H445.453C446.127 321.837 446.673 321.27 446.673 320.571C446.673 319.872 446.127 319.306 445.453 319.306Z" fill="white"/>
<path d="M452.656 319.306H450.433C449.759 319.306 449.213 319.872 449.213 320.571C449.213 321.27 449.759 321.837 450.433 321.837H452.656C453.33 321.837 453.876 321.27 453.876 320.571C453.876 319.872 453.33 319.306 452.656 319.306Z" fill="white"/>
<path d="M438.539 319.517H424.724C424.05 319.517 423.504 320.083 423.504 320.782C423.504 321.481 424.05 322.048 424.724 322.048H438.539C439.212 322.048 439.759 321.481 439.759 320.782C439.759 320.083 439.212 319.517 438.539 319.517Z" fill="white"/>
<path d="M426.812 313.592H424.589C423.915 313.592 423.369 314.159 423.369 314.858C423.369 315.557 423.915 316.124 424.589 316.124H426.812C427.485 316.124 428.032 315.557 428.032 314.858C428.032 314.159 427.485 313.592 426.812 313.592Z" fill="white"/>
<path d="M452.232 313.592H450.009C449.335 313.592 448.789 314.159 448.789 314.858C448.789 315.557 449.335 316.124 450.009 316.124H452.232C452.906 316.124 453.452 315.557 453.452 314.858C453.452 314.159 452.906 313.592 452.232 313.592Z" fill="white"/>
<path d="M459.435 313.592H457.212C456.538 313.592 455.992 314.159 455.992 314.858C455.992 315.557 456.538 316.124 457.212 316.124H459.435C460.108 316.124 460.655 315.557 460.655 314.858C460.655 314.159 460.108 313.592 459.435 313.592Z" fill="white"/>
<path d="M445.317 313.803H431.503C430.829 313.803 430.283 314.37 430.283 315.069C430.283 315.768 430.829 316.335 431.503 316.335H445.317C445.991 316.335 446.537 315.768 446.537 315.069C446.537 314.37 445.991 313.803 445.317 313.803Z" fill="white"/>
<path d="M394.657 397.694L384.223 380.584L416.974 353.5L430.493 337.964C432.249 335.946 434.485 334.441 436.978 333.6C439.471 332.759 442.133 332.611 444.697 333.171C447.262 333.732 449.641 334.981 451.594 336.793C453.548 338.606 455.009 340.919 455.832 343.5C457.05 347.326 456.788 351.494 455.101 355.123C453.414 358.753 450.433 361.56 446.788 362.953L425.412 371.122L394.657 397.694Z" fill="#FFB6B6"/>
<path d="M149.83 273.637V356.795H205.99V273.637C205.991 273.039 205.807 272.456 205.465 271.975C205.123 271.493 204.641 271.138 204.091 270.961C203.831 270.872 203.559 270.829 203.286 270.832H152.542C152.187 270.831 151.834 270.903 151.505 271.044C151.177 271.184 150.878 271.391 150.626 271.651C150.374 271.912 150.174 272.221 150.037 272.562C149.901 272.903 149.83 273.268 149.83 273.637ZM171.747 302.211C171.762 300.571 172.4 299.004 173.522 297.85C174.645 296.696 176.162 296.049 177.742 296.049C179.322 296.049 180.839 296.696 181.962 297.85C183.084 299.004 183.722 300.571 183.737 302.211V311.859C183.729 313.503 183.094 315.077 181.97 316.236C180.847 317.396 179.327 318.047 177.742 318.047C176.157 318.047 174.637 317.396 173.514 316.236C172.39 315.077 171.755 313.503 171.747 311.859V302.211Z" fill="#2F2E41"/>
<path d="M149.658 354.136V362.155C149.659 362.571 149.819 362.969 150.101 363.263C150.383 363.558 150.766 363.725 151.167 363.728H204.654C205.054 363.726 205.438 363.559 205.721 363.265C206.003 362.97 206.162 362.571 206.162 362.155V354.136H149.658Z" fill="#3F3D56"/>
<path d="M61.4829 148.349V300.184C61.4844 302.119 62.226 303.974 63.5449 305.342C64.8639 306.71 66.6523 307.479 68.5176 307.481H285.419C287.284 307.479 289.073 306.71 290.392 305.342C291.711 303.974 292.452 302.119 292.454 300.184V148.349C292.449 146.416 291.707 144.563 290.388 143.197C289.07 141.831 287.283 141.062 285.419 141.06H68.5176C66.6539 141.062 64.8672 141.831 63.5487 143.197C62.2302 144.563 61.4874 146.416 61.4829 148.349Z" fill="#3F3D56"/>
<path d="M66.5713 150.238V298.311C66.573 299.345 66.9696 300.336 67.6743 301.067C68.379 301.798 69.3343 302.209 70.3309 302.211H283.613C284.61 302.209 285.565 301.798 286.27 301.067C286.975 300.336 287.371 299.345 287.373 298.311V150.238C287.373 149.203 286.977 148.21 286.272 147.478C285.567 146.745 284.611 146.332 283.613 146.33H70.3309C69.3331 146.332 68.3769 146.745 67.6721 147.478C66.9673 148.21 66.5714 149.203 66.5713 150.238Z" fill="white"/>
<path d="M106.153 363.185C106.37 363.467 106.646 363.695 106.96 363.851C107.274 364.006 107.618 364.087 107.966 364.085H234.856C235.203 364.084 235.545 364.004 235.859 363.849C236.172 363.693 236.448 363.468 236.666 363.188C236.885 362.909 237.041 362.582 237.122 362.232C237.204 361.882 237.209 361.518 237.138 361.166L235.168 351.46C235.087 351.064 234.911 350.696 234.657 350.389C234.403 350.081 234.079 349.845 233.715 349.701C233.451 349.593 233.17 349.538 232.886 349.539H109.928C109.645 349.538 109.364 349.593 109.1 349.701C108.735 349.845 108.411 350.081 108.157 350.389C107.903 350.696 107.727 351.064 107.646 351.46L105.676 361.166C105.606 361.518 105.612 361.882 105.695 362.231C105.777 362.58 105.934 362.906 106.153 363.185Z" fill="#2F2E41"/>
<path d="M276.692 166.728H77.1243C76.9169 166.723 76.7195 166.634 76.5744 166.48C76.4294 166.326 76.3481 166.12 76.3481 165.904C76.3481 165.689 76.4294 165.482 76.5744 165.329C76.7195 165.175 76.9169 165.086 77.1243 165.081H276.692C276.9 165.086 277.097 165.175 277.242 165.329C277.387 165.482 277.468 165.689 277.468 165.904C277.468 166.12 277.387 166.326 277.242 166.48C277.097 166.634 276.9 166.723 276.692 166.728Z" fill="#3F3D56"/>
<path d="M90.7086 160.878C93.2773 160.878 95.3597 158.669 95.3597 155.945C95.3597 153.221 93.2773 151.013 90.7086 151.013C88.1399 151.013 86.0576 153.221 86.0576 155.945C86.0576 158.669 88.1399 160.878 90.7086 160.878Z" fill="#3F3D56"/>
<path d="M106.776 160.878C109.345 160.878 111.427 158.669 111.427 155.945C111.427 153.221 109.345 151.013 106.776 151.013C104.207 151.013 102.125 153.221 102.125 155.945C102.125 158.669 104.207 160.878 106.776 160.878Z" fill="#3F3D56"/>
<path d="M122.843 160.878C125.412 160.878 127.494 158.669 127.494 155.945C127.494 153.221 125.412 151.013 122.843 151.013C120.275 151.013 118.192 153.221 118.192 155.945C118.192 158.669 120.275 160.878 122.843 160.878Z" fill="#3F3D56"/>
<path d="M267.017 152.233H255.605C255.379 152.238 255.165 152.335 255.007 152.503C254.85 152.67 254.761 152.895 254.761 153.129C254.761 153.363 254.85 153.588 255.007 153.755C255.165 153.923 255.379 154.019 255.605 154.025H267.017C267.244 154.022 267.46 153.926 267.62 153.758C267.779 153.59 267.868 153.364 267.868 153.129C267.868 152.893 267.779 152.667 267.62 152.5C267.46 152.332 267.244 152.236 267.017 152.233Z" fill="#3F3D56"/>
<path d="M267.017 155.598H255.605C255.379 155.603 255.164 155.7 255.007 155.867C254.849 156.034 254.76 156.259 254.76 156.494C254.76 156.728 254.849 156.953 255.007 157.12C255.164 157.288 255.379 157.384 255.605 157.39H267.017C267.244 157.387 267.461 157.291 267.621 157.123C267.781 156.956 267.87 156.729 267.87 156.494C267.87 156.258 267.781 156.032 267.621 155.864C267.461 155.696 267.244 155.6 267.017 155.598Z" fill="#3F3D56"/>
<path d="M267.017 158.962H255.605C255.379 158.968 255.165 159.065 255.007 159.232C254.85 159.4 254.761 159.624 254.761 159.858C254.761 160.092 254.85 160.317 255.007 160.485C255.165 160.652 255.379 160.749 255.605 160.754H267.017C267.244 160.751 267.46 160.655 267.62 160.487C267.779 160.32 267.868 160.094 267.868 159.858C267.868 159.623 267.779 159.397 267.62 159.229C267.46 159.062 267.244 158.966 267.017 158.962Z" fill="#3F3D56"/>
<path d="M542.133 357.655C542.478 358.695 543.131 359.596 543.999 360.227C544.868 360.858 545.906 361.187 546.966 361.167L567.673 360.614C568.741 360.593 569.773 360.213 570.616 359.533C571.458 358.852 572.066 357.907 572.348 356.838L575.278 324.335C576.318 324.823 577.449 325.064 578.591 325.041C579.582 325.015 580.559 324.787 581.465 324.369C582.371 323.952 583.19 323.353 583.873 322.608C584.557 321.863 585.092 320.985 585.448 320.025C585.804 319.065 585.975 318.041 585.95 317.013C585.925 315.985 585.705 314.971 585.303 314.031C584.901 313.091 584.324 312.242 583.605 311.533C582.886 310.824 582.04 310.269 581.115 309.899C580.189 309.53 579.203 309.353 578.211 309.378C577.755 309.377 577.3 309.426 576.854 309.525C576.369 308.98 575.78 308.547 575.124 308.254C574.468 307.96 573.759 307.812 573.045 307.82L541.193 308.673C540.929 308.683 540.666 308.717 540.407 308.774C539.709 308.909 539.046 309.198 538.464 309.621C537.882 310.044 537.395 310.591 537.034 311.226C536.673 311.861 536.447 312.569 536.372 313.302C536.297 314.035 536.374 314.776 536.598 315.475L542.133 357.655ZM575.879 322.128L577.964 314.382C578.201 313.487 578.207 312.544 577.98 311.646C578.081 311.646 578.17 311.596 578.272 311.596C579.701 311.565 581.084 312.124 582.117 313.149C583.151 314.175 583.75 315.583 583.783 317.066C583.817 318.549 583.282 319.986 582.296 321.06C581.31 322.135 579.954 322.76 578.524 322.799C577.6 322.829 576.686 322.597 575.879 322.128Z" fill="#2F2E41"/>
<path d="M540.408 308.774C541.086 312.799 548.716 315.629 557.889 315.137C566.325 314.734 573.223 311.661 574.487 308.019C574.019 307.875 573.533 307.808 573.045 307.82L541.193 308.673C540.929 308.683 540.666 308.717 540.408 308.774Z" fill="#3F3D56"/>
<path d="M559.571 339.794C559.613 339.783 559.653 339.765 559.689 339.74L564.186 336.687C564.24 336.65 564.285 336.6 564.316 336.541C564.346 336.482 564.363 336.416 564.363 336.348C564.363 336.281 564.347 336.215 564.316 336.155C564.285 336.096 564.24 336.046 564.186 336.009L559.512 332.833C559.469 332.804 559.421 332.784 559.37 332.773C559.32 332.763 559.268 332.764 559.218 332.774C559.167 332.785 559.119 332.806 559.077 332.836C559.034 332.866 558.998 332.905 558.97 332.949C558.941 332.994 558.922 333.044 558.913 333.096C558.903 333.149 558.904 333.202 558.914 333.255C558.925 333.307 558.945 333.356 558.974 333.4C559.003 333.444 559.04 333.482 559.084 333.511L563.258 336.348L559.261 339.062C559.184 339.115 559.127 339.194 559.1 339.286C559.074 339.378 559.08 339.476 559.117 339.564C559.154 339.652 559.22 339.723 559.303 339.766C559.386 339.808 559.481 339.818 559.571 339.794Z" fill="#FD8218"/>
<path d="M552.468 340.134C552.544 340.114 552.612 340.072 552.664 340.011C552.716 339.951 552.749 339.876 552.76 339.796C552.77 339.716 552.757 339.635 552.723 339.562C552.689 339.49 552.634 339.43 552.567 339.389L548.422 336.924L552.428 333.837C552.469 333.806 552.504 333.766 552.53 333.72C552.557 333.674 552.574 333.624 552.582 333.571C552.589 333.519 552.586 333.465 552.574 333.413C552.561 333.362 552.539 333.313 552.509 333.27C552.478 333.228 552.44 333.192 552.396 333.164C552.352 333.137 552.303 333.119 552.252 333.111C552.201 333.104 552.15 333.106 552.1 333.119C552.05 333.132 552.003 333.155 551.962 333.187L547.477 336.643C547.425 336.683 547.383 336.736 547.356 336.797C547.328 336.858 547.316 336.925 547.32 336.992C547.323 337.06 547.343 337.125 547.377 337.182C547.412 337.239 547.459 337.287 547.515 337.32L552.178 340.093C552.266 340.145 552.37 340.16 552.468 340.134Z" fill="#FD8218"/>
<path d="M559.123 342.47C559.161 342.46 559.197 342.445 559.23 342.423C559.274 342.396 559.312 342.359 559.343 342.316C559.373 342.273 559.395 342.225 559.407 342.173C559.419 342.121 559.422 342.067 559.414 342.015C559.406 341.962 559.388 341.912 559.361 341.866L552.987 330.994C552.933 330.903 552.846 330.837 552.745 330.812C552.644 330.786 552.538 330.804 552.45 330.86C552.361 330.915 552.298 331.005 552.273 331.11C552.249 331.214 552.265 331.324 552.319 331.416L558.693 342.288C558.737 342.362 558.802 342.42 558.88 342.452C558.957 342.485 559.042 342.491 559.123 342.47Z" fill="#FD8218"/>
<path d="M200.753 211.485H166.212C164.803 211.485 163.661 212.67 163.661 214.132V217.632C163.661 219.094 164.803 220.279 166.212 220.279H200.753C202.162 220.279 203.304 219.094 203.304 217.632V214.132C203.304 212.67 202.162 211.485 200.753 211.485Z" fill="#FD8218"/>
<path d="M220.887 229.073H146.079C144.67 229.073 143.527 230.258 143.527 231.719V235.22C143.527 236.682 144.67 237.867 146.079 237.867H220.887C222.296 237.867 223.438 236.682 223.438 235.22V231.719C223.438 230.258 222.296 229.073 220.887 229.073Z" fill="#E6E6E6"/>
<path d="M220.887 246.661H146.079C144.67 246.661 143.527 247.846 143.527 249.307V252.808C143.527 254.27 144.67 255.455 146.079 255.455H220.887C222.296 255.455 223.438 254.27 223.438 252.808V249.307C223.438 247.846 222.296 246.661 220.887 246.661Z" fill="#E6E6E6"/>
<path d="M227.228 305.555L227.397 306.11L227.406 306.129L232.507 322.214L238.374 340.75L249.412 375.584L249.519 380.995V381.014L250.34 424.542L248.066 430.444L250.625 440.119C250.625 440.119 249.448 425.494 243.135 433.893C239.56 438.665 235.378 443.549 231.945 448.128C236.947 450.227 242.03 452.127 247.192 453.825C248.307 454.195 249.43 454.547 250.554 454.898C250.794 454.972 251.035 455.046 251.276 455.12C268.39 460.37 286.082 463.32 303.919 463.898C304.847 463.926 305.756 463.944 306.639 463.963C306.951 463.972 307.254 463.982 307.557 463.982C308.556 463.991 309.546 464 310.544 464C312.559 464 314.566 463.969 316.563 463.908C331.346 463.475 346.043 461.413 360.406 457.756C360.308 451.606 360.04 444.419 359.657 436.741C359.478 432.977 355.475 428.898 355.234 424.957C355.065 421.998 358.658 419.213 358.471 416.207C357.258 397.699 355.742 404.804 354.619 391.697C354.503 390.411 354.396 389.181 354.298 388.006C353.576 379.589 353.076 374.326 353.076 374.326L357.873 342.961L365.408 293.716L364.828 292.726L364.177 292.393L324.436 271.989L322.278 266.254C321.65 264.602 320.559 263.182 319.146 262.179C317.734 261.175 316.064 260.632 314.352 260.621L288.173 260.51C286.814 260.504 285.474 260.833 284.262 261.472C283.051 262.111 282.005 263.04 281.209 264.182L274.12 274.366L227.228 305.555Z" fill="#3F3D56"/>
<path d="M255.449 367.833L249.519 380.995L245.471 389.986L238.507 427.807L235.021 431.646L232.034 418.057L200.77 425.258C199.745 419.347 200.496 425.458 199.863 418.974C200.041 418.789 200.228 418.604 200.416 418.419C200.915 417.938 201.334 417.485 201.325 417.05C200.968 394.684 202.038 356.622 210.973 333.563C212.372 329.798 214.217 326.228 216.465 322.935C216.644 322.686 216.813 322.436 216.983 322.186C221.102 316.202 223.706 310.31 227.397 306.12V306.11C227.42 306.091 227.441 306.069 227.459 306.045C227.473 306.039 227.485 306.029 227.495 306.018L252.854 292.069L253.942 323.777L254.717 346.568L255.449 367.833Z" fill="#3F3D56"/>
<path d="M346.888 371.571L354.294 388.011L356.88 393.736L363.841 431.554L367.316 435.383L370.31 421.798L371.717 421.498L397.087 416.048L404.482 440.41C406.149 437.529 406.805 434.14 406.341 430.815C405.876 427.49 404.319 424.433 401.933 422.162C401.428 421.688 401.007 421.226 401.019 420.79C401.44 394.484 399.889 346.451 385.881 326.681C381.432 320.407 378.763 314.158 374.879 309.792C374.867 309.78 374.867 309.768 374.855 309.768L365.404 293.715L364.827 292.729L364.178 292.393L346.888 371.571Z" fill="#3F3D56"/>
<path d="M302.018 252.781C321.253 252.781 336.846 236.606 336.846 216.652C336.846 196.699 321.253 180.523 302.018 180.523C282.783 180.523 267.19 196.699 267.19 216.652C267.19 236.606 282.783 252.781 302.018 252.781Z" fill="#FFB6B6"/>
<path d="M349.092 191.416C348.822 191.117 348.497 190.878 348.135 190.712C347.774 190.546 347.384 190.458 346.989 190.452L347.513 188.943C347.684 188.468 347.73 187.955 347.647 187.455C347.563 186.956 347.353 186.488 347.039 186.1C346.724 185.712 346.315 185.418 345.854 185.248C345.394 185.078 344.898 185.038 344.418 185.133L342.511 185.514L342.691 184.192C342.759 183.7 342.704 183.197 342.529 182.734C342.354 182.271 342.066 181.863 341.692 181.551C341.319 181.238 340.874 181.032 340.401 180.952C339.928 180.872 339.443 180.921 338.993 181.095C338.585 181.262 338.145 181.331 337.707 181.299C337.269 181.267 336.843 181.133 336.461 180.908C336.077 180.69 335.744 180.387 335.485 180.022C335.226 179.656 335.047 179.237 334.96 178.792L334.296 175.467L334.225 175.289C330.99 169.694 324.768 165.624 317.155 164.132C310.378 162.794 303.429 163.475 296.731 164.116C294.073 164.375 291.072 164.667 288.571 166.257C286.445 167.619 284.647 170.343 285.014 173.092C278.41 170.992 271.328 175.184 267.819 180.47C263.66 186.762 262.98 194.643 262.871 200.806C262.574 215.384 265.474 227.312 271.469 236.263C271.906 236.912 272.016 238.266 272.883 238.72L272.704 238.42C273.673 238.923 274.658 239.733 274.29 240.601C273.235 243.098 280.246 248.62 285.186 250.444C294.198 253.777 306.181 253.493 314.607 252.293L314.904 250.225C317.944 249.796 320.086 248.977 320.688 247.696C321.751 246.755 322.657 245.912 323.447 245.133L323.455 245.125C323.47 245.109 323.502 245.085 323.517 245.069C327.324 241.282 328.207 239.125 328.606 235.841C328.989 232.622 328.309 229.355 327.613 226.412C342.261 228.763 321.845 210.228 335.492 206.644C335.648 206.594 335.807 206.553 335.968 206.522C336.367 206.425 336.766 206.327 337.149 206.214C338.995 205.694 340.763 204.911 342.401 203.887C346.216 201.479 347.474 198.284 349.444 194.684C349.728 194.171 349.847 193.578 349.784 192.99C349.721 192.403 349.478 191.851 349.092 191.416Z" fill="#2F2E41"/>
<path d="M425.2 374.144C425.192 375.563 425.176 377.549 425.114 380.006C425.106 380.347 425.098 380.695 425.09 381.052C424.989 385.568 424.887 389.355 424.723 393.563C424.715 393.855 424.707 394.139 424.692 394.431C424.473 400.301 424.129 407.136 423.535 417.961C422.433 437.956 420.51 420.709 418.579 427.723C418.485 428.072 418.384 428.485 418.29 428.972C417.998 430.737 417.504 432.46 416.821 434.104C415.797 434.737 414.741 435.345 413.702 435.953C410.74 437.664 407.73 439.31 404.698 440.875C402.994 441.75 401.282 442.61 399.562 443.437C399.289 443.567 399.023 443.696 398.757 443.818C389.952 448.043 380.876 451.635 371.596 454.57C369.782 455.137 367.977 455.688 366.148 456.199C364.241 456.751 362.333 457.27 360.403 457.756C346.041 461.414 331.344 463.477 316.561 463.91C314.568 463.975 312.559 463.999 310.543 463.999C309.542 463.999 308.557 463.991 307.557 463.983C307.252 463.983 306.947 463.975 306.642 463.967C305.759 463.943 304.845 463.926 303.922 463.902C286.085 463.325 268.392 460.374 251.28 455.121L250.553 454.902C249.427 454.545 248.31 454.197 247.192 453.824C242.033 452.129 236.95 450.232 231.942 448.132C228.12 446.534 224.342 444.821 220.609 442.991C220.575 442.981 220.543 442.965 220.515 442.942C219.733 442.569 218.944 442.18 218.162 441.783C218.061 441.726 217.951 441.669 217.842 441.613C214.926 440.137 212.042 438.591 209.189 436.975C206.789 431.258 203.413 430.164 201.318 425.137C200.708 423.643 200.268 422.081 200.005 420.482C200.005 420.466 199.997 420.45 199.997 420.426C200.216 423.442 199.067 415.074 199.989 420.393C199.981 420.296 199.974 420.191 199.966 420.069C199.942 419.777 199.911 419.42 199.864 418.974C197.183 391.82 197.355 360.765 196.191 335.176C196.112 333.522 196.032 331.938 195.948 330.424C195.925 329.922 195.894 329.427 195.862 328.941C195.917 328.795 195.98 328.64 196.05 328.495C196.065 328.452 196.083 328.412 196.105 328.373C196.128 328.323 196.154 328.274 196.183 328.227C196.198 328.203 196.222 328.17 196.237 328.146C196.249 328.118 196.262 328.091 196.277 328.065C196.347 327.951 196.425 327.83 196.511 327.716C196.55 327.668 196.581 327.627 196.62 327.586C196.647 327.545 196.679 327.507 196.714 327.473C196.738 327.434 196.767 327.398 196.8 327.368C196.832 327.335 196.863 327.295 196.902 327.254C196.919 327.229 196.94 327.206 196.964 327.189C197.026 327.115 197.094 327.048 197.168 326.986C197.446 326.72 197.744 326.476 198.059 326.257C198.168 326.184 198.285 326.111 198.395 326.03C199.182 325.541 200.012 325.128 200.873 324.797C201.17 324.684 201.467 324.578 201.787 324.465C201.904 324.432 202.014 324.392 202.131 324.351C202.303 324.295 202.475 324.238 202.655 324.197C203.546 323.922 204.507 323.686 205.547 323.467C205.672 323.443 205.805 323.419 205.937 323.386C206.125 323.346 206.32 323.313 206.516 323.281C206.782 323.232 207.055 323.184 207.329 323.135C209.65 322.754 212.284 322.47 215.192 322.284C215.466 322.267 215.739 322.251 216.013 322.235C216.333 322.219 216.654 322.203 216.982 322.186C217.255 322.17 217.537 322.162 217.818 322.154C218.092 322.138 218.373 322.13 218.662 322.122C219.452 322.097 220.265 322.073 221.093 322.057C223.454 322.008 225.939 322.024 228.55 322.081C229.762 322.113 230.996 322.146 232.263 322.203C232.349 322.203 232.427 322.211 232.505 322.211C233.607 322.251 234.717 322.3 235.858 322.365C236.655 322.405 237.461 322.446 238.266 322.495C239.024 322.543 239.79 322.592 240.564 322.649C241.165 322.681 241.767 322.73 242.377 322.77C242.893 322.811 243.409 322.851 243.925 322.884L244.628 322.932C245.011 322.965 245.394 322.989 245.785 323.03C246.645 323.103 247.504 323.176 248.38 323.249C249.247 323.33 250.131 323.411 251.014 323.492C251.897 323.573 252.788 323.662 253.679 323.751C253.773 323.759 253.859 323.767 253.945 323.776C254.758 323.865 255.571 323.946 256.392 324.035C256.579 324.051 256.775 324.067 256.962 324.092C257.745 324.173 258.542 324.269 259.332 324.356C259.574 324.383 259.815 324.409 260.058 324.437C260.677 324.507 261.287 324.567 261.91 324.643C262.73 324.74 263.567 324.83 264.38 324.943C265.013 325.016 265.646 325.089 266.279 325.17C267.272 325.292 268.28 325.422 269.288 325.559C269.671 325.608 270.054 325.657 270.437 325.713C273.314 326.086 276.221 326.5 279.176 326.93C283.655 327.586 288.204 328.3 292.784 329.07C297.372 329.841 301.986 330.654 306.627 331.511C307.799 331.73 308.972 331.949 310.152 332.176C310.683 332.281 311.215 332.386 311.746 332.492C312.653 332.662 313.56 332.841 314.466 333.019C315.373 333.197 316.28 333.376 317.186 333.562C318.265 333.781 319.352 334 320.43 334.219C327.535 335.678 334.601 337.235 341.495 338.865C342.628 339.133 343.762 339.408 344.887 339.676C347.138 340.219 349.369 340.77 351.578 341.33C352.188 341.476 352.79 341.63 353.391 341.784C354.892 342.173 356.393 342.562 357.87 342.96L358.128 343.033C359.215 343.308 360.278 343.592 361.341 343.884C363.85 344.565 366.317 345.254 368.743 345.952C370.353 346.414 371.945 346.881 373.518 347.354C375.871 348.06 378.177 348.773 380.42 349.495C380.975 349.673 381.53 349.852 382.077 350.022C383.719 350.549 385.337 351.084 386.908 351.619C388.158 352.041 389.378 352.471 390.581 352.9C391.785 353.33 392.965 353.76 394.122 354.19C394.865 354.465 395.599 354.757 396.334 355.033C397.389 355.438 398.429 355.844 399.445 356.249C399.758 356.371 400.062 356.5 400.367 356.622C400.563 356.711 400.75 356.784 400.938 356.865C401.305 357.019 401.68 357.165 402.04 357.319C402.407 357.465 402.767 357.619 403.126 357.781C403.478 357.927 403.838 358.081 404.182 358.236C404.533 358.381 404.877 358.536 405.221 358.698C405.51 358.819 405.792 358.949 406.065 359.079C406.62 359.33 407.175 359.582 407.715 359.841C407.98 359.971 408.246 360.092 408.512 360.222L409.122 360.514C409.208 360.563 409.293 360.603 409.379 360.644C409.575 360.741 409.778 360.846 409.973 360.944C410.427 361.163 410.872 361.398 411.31 361.617C411.896 361.925 412.467 362.233 413.014 362.533C413.569 362.841 414.108 363.149 414.624 363.449C414.71 363.498 414.788 363.546 414.874 363.595C414.992 363.66 415.109 363.733 415.226 363.798C415.625 364.033 416.008 364.276 416.391 364.511C417.141 364.99 417.852 365.46 418.517 365.93C418.665 366.036 418.806 366.141 418.954 366.238C419.447 366.603 419.916 366.96 420.354 367.325C420.354 367.333 420.354 367.333 420.361 367.333C420.51 367.446 420.651 367.568 420.791 367.682C420.908 367.795 421.033 367.892 421.151 368.006C421.557 368.371 421.932 368.719 422.276 369.076C422.392 369.186 422.501 369.303 422.605 369.425C422.65 369.464 422.692 369.507 422.73 369.555C422.886 369.717 423.027 369.879 423.16 370.041C423.18 370.063 423.198 370.088 423.214 370.114C423.402 370.341 423.574 370.568 423.738 370.795C423.816 370.909 423.902 371.022 423.972 371.136C424.066 371.274 424.16 371.42 424.238 371.557C424.309 371.671 424.371 371.792 424.434 371.906C424.599 372.198 424.741 372.505 424.856 372.822C424.944 373.037 425.014 373.26 425.067 373.487C425.126 373.702 425.17 373.922 425.2 374.144Z" fill="#2F2E41"/>
<path opacity="0.2" d="M425.2 374.144C425.192 375.562 425.176 377.549 425.114 380.006C425.106 380.346 425.09 380.695 425.083 381.052C425.004 384.498 424.887 388.755 424.723 393.563C424.715 393.855 424.707 394.138 424.692 394.43C424.473 400.301 424.129 407.136 423.535 417.96C422.433 437.955 420.51 420.709 418.579 427.723C413.217 424.301 407.34 420.717 401.055 417.036C399.922 416.371 398.778 415.704 397.624 415.033C385.055 407.76 371.017 400.139 356.362 392.59C355.783 392.29 355.197 391.99 354.619 391.698C321.048 374.484 284.405 357.741 254.719 346.567C248.99 344.411 243.518 342.465 238.375 340.754C227.542 337.162 218.178 334.648 210.971 333.562C203.468 332.427 198.285 332.832 196.191 335.175C196.112 333.521 196.032 331.937 195.948 330.424C195.917 329.921 195.886 329.427 195.854 328.94C195.903 328.807 195.965 328.679 196.026 328.551C196.035 328.532 196.041 328.513 196.05 328.494C196.065 328.452 196.083 328.411 196.105 328.373C196.128 328.322 196.154 328.273 196.183 328.227C196.208 328.169 196.24 328.115 196.277 328.064C196.347 327.951 196.425 327.829 196.511 327.716C196.574 327.631 196.642 327.549 196.714 327.472C196.738 327.433 196.767 327.398 196.8 327.367C196.832 327.335 196.863 327.294 196.902 327.254C196.919 327.228 196.94 327.206 196.964 327.189C197.026 327.115 197.094 327.047 197.168 326.986C197.447 326.72 197.744 326.476 198.059 326.256C198.168 326.183 198.285 326.11 198.395 326.029C199.182 325.54 200.012 325.128 200.873 324.797C201.17 324.683 201.467 324.578 201.787 324.464C201.904 324.432 202.014 324.391 202.131 324.351C202.303 324.294 202.475 324.237 202.655 324.197C203.546 323.921 204.507 323.686 205.547 323.467C205.859 323.402 206.188 323.337 206.516 323.281C206.782 323.232 207.055 323.183 207.329 323.135C209.65 322.754 212.284 322.47 215.192 322.283C215.466 322.267 215.739 322.251 216.013 322.235C216.333 322.218 216.654 322.202 216.982 322.186C217.255 322.17 217.537 322.162 217.818 322.154C218.092 322.137 218.373 322.129 218.662 322.121C219.452 322.097 220.265 322.072 221.093 322.056C223.454 322.016 225.939 322.032 228.55 322.089C229.762 322.113 230.996 322.154 232.263 322.21C232.341 322.21 232.427 322.218 232.505 322.218C233.607 322.251 234.725 322.308 235.858 322.364C236.655 322.405 237.461 322.445 238.266 322.494C239.024 322.543 239.79 322.591 240.564 322.648C241.165 322.681 241.767 322.729 242.377 322.77C242.893 322.81 243.409 322.851 243.925 322.883C244.542 322.932 245.16 322.981 245.785 323.029C246.645 323.102 247.504 323.175 248.38 323.248C249.247 323.329 250.131 323.41 251.014 323.491C251.897 323.572 252.788 323.662 253.679 323.751C253.773 323.759 253.859 323.767 253.945 323.775C254.758 323.864 255.571 323.945 256.392 324.035C260.941 324.513 265.623 325.072 270.437 325.713C273.314 326.094 276.227 326.502 279.176 326.937C283.655 327.594 288.204 328.308 292.784 329.07C297.372 329.84 301.987 330.654 306.627 331.51C307.799 331.729 308.972 331.948 310.152 332.175C311.59 332.451 313.028 332.732 314.467 333.019C315.373 333.197 316.28 333.375 317.187 333.562C318.265 333.781 319.352 334 320.43 334.219C327.535 335.678 334.601 337.235 341.495 338.865C342.629 339.132 343.762 339.408 344.887 339.675C347.139 340.219 349.369 340.77 351.578 341.329C352.188 341.484 352.79 341.638 353.392 341.792C354.9 342.181 356.393 342.57 357.87 342.959V342.967C357.956 342.984 358.042 343.008 358.128 343.032C359.207 343.316 360.278 343.6 361.341 343.892C363.85 344.573 366.317 345.259 368.743 345.951C370.353 346.421 371.947 346.884 373.518 347.354C375.871 348.067 378.177 348.781 380.42 349.494C380.975 349.673 381.53 349.851 382.077 350.022C383.719 350.557 385.329 351.089 386.908 351.619C388.158 352.04 389.378 352.47 390.581 352.9C391.785 353.33 392.965 353.759 394.122 354.189C394.873 354.465 395.607 354.749 396.334 355.024C397.397 355.43 398.429 355.835 399.445 356.249C399.758 356.37 400.063 356.5 400.367 356.622C400.938 356.849 401.493 357.084 402.04 357.319C402.407 357.465 402.767 357.619 403.127 357.781C403.478 357.927 403.838 358.081 404.182 358.235C404.533 358.381 404.877 358.535 405.221 358.697C405.511 358.819 405.792 358.949 406.065 359.078C406.62 359.33 407.175 359.581 407.715 359.841C407.98 359.97 408.246 360.092 408.512 360.222L409.122 360.514C409.208 360.562 409.294 360.603 409.38 360.643C410.044 360.968 410.685 361.292 411.31 361.616C411.896 361.924 412.467 362.233 413.014 362.533C413.663 362.889 414.28 363.238 414.874 363.595C414.992 363.66 415.109 363.733 415.226 363.797C415.625 364.033 416.008 364.276 416.391 364.511C417.141 364.989 417.852 365.46 418.517 365.93C419.173 366.4 419.783 366.862 420.354 367.324C420.354 367.333 420.354 367.333 420.361 367.333C420.635 367.56 420.901 367.787 421.151 368.006C421.557 368.37 421.933 368.719 422.276 369.076C422.392 369.186 422.501 369.302 422.605 369.424C422.65 369.464 422.692 369.507 422.73 369.554C422.894 369.741 423.058 369.927 423.214 370.114C423.402 370.341 423.574 370.568 423.738 370.795C423.816 370.908 423.902 371.022 423.973 371.135C424.066 371.273 424.16 371.419 424.238 371.557C424.309 371.67 424.371 371.792 424.434 371.906C424.6 372.198 424.741 372.504 424.856 372.822C424.941 373.038 425.012 373.26 425.067 373.487C425.126 373.702 425.171 373.922 425.2 374.144Z" fill="black"/>
</g>
<defs>
<clipPath id="clip0_433_6">
<rect width="615" height="464" fill="white"/>
</clipPath>
</defs>
</svg>
