<svg width="518" height="436" viewBox="0 0 518 436" fill="none" xmlns="http://www.w3.org/2000/svg">
<g clip-path="url(#clip0_28_147)">
<path d="M517.061 422.67C517.219 439.656 412.961 441.213 410.975 422.671C410.817 405.686 515.075 404.129 517.061 422.67Z" fill="#E6E6E6"/>
<path d="M435.491 363.702L427.742 368.04L432.673 384.674L440.421 385.397L444.648 375.996L435.491 363.702Z" fill="#9F616A"/>
<path d="M459.439 396.968V404.922L471.414 404.199L471.247 397.648L459.439 396.968Z" fill="#9F616A"/>
<path d="M432.672 268.241L436.898 322.48L450.282 402.029L471.414 399.137L464.37 336.22L467.188 278.366L432.672 268.241Z" fill="#2F2E41"/>
<path d="M489.024 227.744L438.308 228.467L432.672 268.242L467.188 284.875L475.64 316.695L432.672 363.701L449.578 385.397C449.578 385.397 473.527 352.131 491.137 333.328C508.747 314.525 500.294 257.394 500.294 257.394L489.024 227.744Z" fill="#2F2E41"/>
<path d="M458.735 125.052C467.293 125.052 474.231 117.929 474.231 109.142C474.231 100.356 467.293 93.2324 458.735 93.2324C450.176 93.2324 443.238 100.356 443.238 109.142C443.238 117.929 450.176 125.052 458.735 125.052Z" fill="#9F616A"/>
<path d="M453.1 119.99V135.9L463.665 153.256C463.665 153.256 479.866 140.962 476.344 138.07C472.823 135.177 472.118 112.758 472.118 112.758L453.1 119.99Z" fill="#9F616A"/>
<path d="M453.1 133.007L442.534 146.024L446.761 236.421L479.867 235.698L485.502 156.872L478.459 136.623L473.627 129.874L465.075 143.131L453.1 133.007Z" fill="#D0CDE1"/>
<path d="M436.194 180.014L428.446 210.387L436.194 240.761L423.515 258.117L412.245 203.156C412.245 203.156 420.698 158.318 421.402 153.256C422.107 148.194 423.515 147.471 423.515 147.471L429.151 148.194L436.194 180.014Z" fill="#2F2E41"/>
<path d="M492.545 191.584L497.476 200.986L498.885 216.896L496.068 234.975L505.929 251.609L515.79 206.048L505.225 147.47H500.998L492.545 191.584Z" fill="#2F2E41"/>
<path d="M432.672 362.979C432.672 362.979 422.811 365.871 419.289 366.594C415.767 367.318 421.402 381.058 421.402 381.058C421.402 381.058 424.924 399.861 425.628 403.477C426.333 407.092 431.264 419.387 437.603 420.833C443.943 422.279 439.716 395.522 439.716 395.522C439.716 395.522 442.534 386.843 442.534 383.951C442.534 381.058 438.307 382.504 438.307 382.504C427.037 381.058 432.672 362.979 432.672 362.979Z" fill="#2F2E41"/>
<path d="M455.917 418.663C456.622 423.003 455.213 423.003 466.483 424.449C477.754 425.895 474.936 416.494 474.936 416.494C474.465 412.062 473.52 407.697 472.118 403.477C470.005 397.691 458.735 404.923 458.735 404.923C458.735 404.923 455.213 414.324 455.917 418.663Z" fill="#2F2E41"/>
<path d="M472.137 113.263L472.504 119.695C472.504 119.695 477.049 109.142 477.754 98.2944C478.458 87.4467 466.483 85.2771 459.439 84.554C452.396 83.8308 440.421 88.893 440.421 94.6785C440.421 100.464 453.1 99.0176 458.031 97.5712C462.961 96.1249 465.075 108.419 465.075 108.419L467.892 109.142L472.137 113.263Z" fill="#2F2E41"/>
<path d="M448.942 138.129L453.1 133.007L465.075 143.132L453.1 151.81L448.942 138.129Z" fill="#D0CDE1"/>
<path d="M478.458 136.623L473.527 130.114L465.075 143.131L475.641 151.086L478.458 136.623Z" fill="#D0CDE1"/>
<path d="M434.082 190.138L436.899 217.619L431.264 234.252L427.742 250.162C427.742 250.162 427.742 265.349 441.83 266.072C455.918 266.795 467.892 220.512 467.892 220.512C467.892 220.512 470.006 230.636 471.414 236.422C472.823 242.207 496.772 265.349 496.772 265.349C496.772 265.349 502.408 264.626 507.338 253.055C512.269 241.484 497.477 230.637 497.477 230.637L493.251 215.45L494.659 196.647L504.521 147.471L475.289 131.922L478.458 173.505L467.892 206.048L452.044 134.092L446.761 138.069L424.22 147.471L434.082 190.138Z" fill="#2F2E41"/>
<path d="M155.699 299.52C154.306 299.509 152.898 299.499 151.514 299.455L151.557 298.023C152.926 298.066 154.327 298.086 155.7 298.087C157.079 298.087 158.484 298.064 159.878 298.018L159.923 299.45C158.514 299.497 157.093 299.52 155.699 299.52ZM143.123 298.915C140.344 298.645 137.538 298.279 134.782 297.828L135.002 296.413C137.729 296.859 140.505 297.222 143.255 297.489L143.123 298.915ZM168.313 298.9L168.18 297.474C170.929 297.203 173.705 296.837 176.431 296.387L176.653 297.802C173.897 298.257 171.091 298.627 168.313 298.9ZM126.526 296.192C123.805 295.559 121.067 294.826 118.39 294.013L118.785 292.639C121.435 293.443 124.143 294.168 126.835 294.794L126.526 296.192ZM184.907 296.157L184.597 294.76C187.295 294.128 190.003 293.4 192.644 292.594L193.042 293.968C190.372 294.782 187.635 295.518 184.907 296.157ZM110.406 291.301C107.78 290.311 105.154 289.221 102.598 288.06L103.163 286.75C105.691 287.897 108.29 288.976 110.887 289.956L110.406 291.301ZM201.021 291.245L200.539 289.9C203.12 288.924 205.71 287.845 208.236 286.695L208.802 288.005C206.248 289.168 203.631 290.258 201.021 291.245ZM95.0134 284.309C92.5427 282.985 90.0753 281.557 87.6806 280.067L88.4045 278.841C90.774 280.317 93.2147 281.728 95.6592 283.038L95.0134 284.309ZM216.366 284.256L215.72 282.986C218.158 281.677 220.594 280.266 222.957 278.791L223.682 280.016C221.293 281.506 218.832 282.933 216.366 284.256ZM80.6296 275.352C78.3412 273.712 76.0733 271.974 73.8881 270.185L74.7585 269.064C76.9205 270.834 79.1646 272.554 81.4285 274.176L80.6296 275.352ZM230.721 275.301L229.921 274.127C232.185 272.503 234.426 270.783 236.582 269.014L237.453 270.134C235.273 271.921 233.009 273.659 230.721 275.301ZM67.4823 264.586C65.4137 262.658 63.3799 260.638 61.4384 258.583L62.4403 257.585C64.3613 259.619 66.3737 261.617 68.4208 263.525L67.4823 264.586ZM243.852 264.536L242.913 263.476C244.955 261.572 246.966 259.572 248.89 257.533L249.892 258.53C247.948 260.59 245.916 262.611 243.852 264.536ZM55.7799 252.198C53.9686 250.018 52.2026 247.75 50.5304 245.457L51.6478 244.598C53.3024 246.867 55.0496 249.111 56.8418 251.268L55.7799 252.198ZM255.549 252.139L254.487 251.21C256.279 249.051 258.027 246.804 259.681 244.532L260.799 245.39C259.127 247.686 257.361 249.957 255.549 252.139ZM45.7113 238.387C44.1842 235.986 42.7147 233.507 41.3433 231.018L42.5586 230.312C43.9149 232.775 45.3691 235.228 46.8802 237.603L45.7113 238.387ZM265.619 238.309L264.45 237.527C265.962 235.147 267.415 232.69 268.772 230.222L269.988 230.926C268.617 233.421 267.147 235.905 265.619 238.309ZM37.4454 223.378C36.2308 220.799 35.0834 218.148 34.0351 215.499L35.3281 214.96C36.3654 217.58 37.5006 220.202 38.7022 222.754L37.4454 223.378ZM273.888 223.266L272.631 222.643C273.832 220.088 274.967 217.458 276.006 214.825L277.3 215.363C276.25 218.024 275.102 220.683 273.888 223.266ZM31.1213 207.4C30.2384 204.678 29.4317 201.894 28.7235 199.124L30.0738 198.76C30.7741 201.5 31.5722 204.255 32.4457 206.947L31.1213 207.4ZM280.208 207.248L278.883 206.798C279.751 204.109 280.547 201.353 281.245 198.608L282.596 198.97C281.889 201.745 281.086 204.53 280.208 207.248ZM26.8509 190.709C26.3176 187.897 25.8664 185.03 25.5096 182.187L26.8938 182.004C27.2469 184.817 27.6933 187.653 28.2209 190.435L26.8509 190.709ZM284.459 190.551L283.089 190.28C283.612 187.499 284.056 184.661 284.406 181.846L285.791 182.028C285.437 184.873 284.989 187.741 284.459 190.551ZM24.7026 173.595C24.5236 170.739 24.4313 167.836 24.4282 164.966L25.8241 164.964C25.8272 167.804 25.9185 170.677 26.0957 173.503L24.7026 173.595ZM286.588 173.435L285.195 173.344C285.369 170.521 285.457 167.648 285.457 164.808L285.456 164.494H286.852L286.853 164.803C286.853 167.678 286.763 170.581 286.588 173.435ZM26.0763 156.427L24.6831 156.339C24.8562 153.477 25.1211 150.586 25.4704 147.745L26.8553 147.924C26.5094 150.736 26.2474 153.596 26.0763 156.427ZM285.176 155.957C284.995 153.125 284.723 150.265 284.368 147.457L285.751 147.272C286.11 150.11 286.386 153 286.569 155.863L285.176 155.957ZM28.1626 139.49L26.792 139.22C27.3185 136.407 27.9422 133.574 28.6448 130.799L29.9957 131.16C29.3005 133.905 28.6837 136.707 28.1626 139.49ZM283.03 139.028C282.498 136.244 281.871 133.443 281.168 130.704L282.517 130.339C283.229 133.108 283.862 135.938 284.4 138.753L283.03 139.028ZM32.3492 122.968L31.0235 122.518C31.8997 119.795 32.8751 117.064 33.923 114.399L35.2173 114.936C34.1806 117.572 33.2158 120.274 32.3492 122.968ZM278.788 122.521C277.911 119.831 276.938 117.137 275.896 114.512L277.189 113.971C278.242 116.624 279.226 119.347 280.111 122.066L278.788 122.521ZM38.5843 107.113L37.3261 106.491C38.5369 103.907 39.8463 101.328 41.2173 98.8275L42.4339 99.5308C41.0772 102.005 39.7822 104.556 38.5843 107.113ZM272.514 106.722C271.311 104.177 270.012 101.636 268.648 99.168L269.863 98.4612C271.24 100.955 272.555 103.524 273.769 106.097L272.514 106.722ZM46.7483 92.2194L45.578 91.4377C47.1003 89.0355 48.7194 86.651 50.39 84.3513L51.5091 85.2077C49.8563 87.4834 48.2542 89.8423 46.7483 92.2194ZM264.318 91.8821C262.808 89.5137 261.201 87.1622 259.542 84.8929L260.659 84.0328C262.336 86.3267 263.96 88.7034 265.487 91.0969L264.318 91.8821ZM56.6953 78.5247L55.632 77.5968C57.4399 75.4132 59.3405 73.2607 61.2809 71.1996L62.2849 72.1953C60.3649 74.2348 58.4844 76.3645 56.6953 78.5247ZM254.341 78.2294C252.546 76.0752 250.659 73.9517 248.735 71.9182L249.735 70.9197C251.681 72.9745 253.587 75.1207 255.401 77.298L254.341 78.2294ZM68.2545 66.2449L67.3146 65.1855C69.3802 63.2538 71.5312 61.3676 73.7075 59.5797L74.5799 60.6986C72.4265 62.4676 70.2982 64.3339 68.2545 66.2449ZM242.747 65.9849C240.7 64.0826 238.566 62.222 236.403 60.4551L237.273 59.3334C239.458 61.1195 241.616 62.9998 243.683 64.9227L242.747 65.9849ZM81.2352 55.5781L80.4344 54.4046C82.7184 52.7612 85.0848 51.1724 87.468 49.6819L88.1942 50.9058C85.8366 52.3805 83.495 53.9525 81.2352 55.5781ZM229.727 55.35C227.455 53.7262 225.106 52.1594 222.746 50.6931L223.469 49.4671C225.854 50.9488 228.229 52.5324 230.525 54.1737L229.727 55.35ZM95.4271 46.7016L94.7789 45.4322C97.2466 44.1034 99.7902 42.8389 102.338 41.6742L102.906 42.9834C100.385 44.1356 97.8689 45.3868 95.4271 46.7016ZM215.486 46.505C213.035 45.195 210.509 43.9498 207.978 42.8036L208.542 41.4922C211.1 42.6507 213.653 43.9095 216.131 45.2335L215.486 46.505ZM110.599 39.7687L110.115 38.4244C112.732 37.4304 115.416 36.5109 118.092 35.6919L118.49 37.0655C115.843 37.8755 113.188 38.7852 110.599 39.7687ZM200.251 39.606C197.656 38.6316 194.998 37.7317 192.35 36.9319L192.744 35.5568C195.421 36.3654 198.108 37.2751 200.731 38.2604L200.251 39.606ZM126.535 34.891L126.223 33.4943C128.939 32.8554 131.715 32.2988 134.476 31.8387L134.699 33.2536C131.968 33.7084 129.222 34.2591 126.535 34.891ZM184.298 34.7868C181.606 34.164 178.858 33.6231 176.128 33.1787L176.347 31.7631C179.106 32.2123 181.884 32.7592 184.605 33.3886L184.298 34.7868ZM142.949 32.1567L142.814 30.7306C145.585 30.4545 148.408 30.2659 151.204 30.1704L151.25 31.6028C148.484 31.6973 145.691 31.8838 142.949 32.1567ZM167.874 32.1123C165.128 31.8488 162.334 31.6725 159.572 31.5882L159.613 30.1558C162.405 30.2411 165.229 30.4192 168.004 30.6855L167.874 32.1123Z" fill="#D0CDE1"/>
<path d="M150.755 67.3563C168.871 67.3563 183.558 52.2781 183.558 33.6781C183.558 15.0782 168.871 0 150.755 0C132.638 0 117.952 15.0782 117.952 33.6781C117.952 52.2781 132.638 67.3563 150.755 67.3563Z" fill="#FD8218"/>
<path d="M277.78 159.076C295.896 159.076 310.583 143.997 310.583 125.397C310.583 106.797 295.896 91.7192 277.78 91.7192C259.663 91.7192 244.977 106.797 244.977 125.397C244.977 143.997 259.663 159.076 277.78 159.076Z" fill="#FD8218"/>
<path d="M237.997 299.52C256.114 299.52 270.8 284.442 270.8 265.842C270.8 247.242 256.114 232.164 237.997 232.164C219.88 232.164 205.194 247.242 205.194 265.842C205.194 284.442 219.88 299.52 237.997 299.52Z" fill="#FD8218"/>
<path d="M80.2631 305.253C98.3797 305.253 113.066 290.175 113.066 271.575C113.066 252.975 98.3797 237.896 80.2631 237.896C62.1464 237.896 47.46 252.975 47.46 271.575C47.46 290.175 62.1464 305.253 80.2631 305.253Z" fill="#FD8218"/>
<path d="M32.8031 159.076C50.9198 159.076 65.6062 143.997 65.6062 125.397C65.6062 106.797 50.9198 91.7192 32.8031 91.7192C14.6865 91.7192 0 106.797 0 125.397C0 143.997 14.6865 159.076 32.8031 159.076Z" fill="#FD8218"/>
<path d="M164.812 30.9931H153.37C152.33 30.9931 151.332 30.5688 150.597 29.8135C149.861 29.0582 149.448 28.0337 149.448 26.9655V15.2184C149.448 15.1744 149.439 15.1307 149.423 15.09C149.406 15.0493 149.382 15.0123 149.352 14.9811C149.321 14.9499 149.285 14.9252 149.246 14.9084C149.206 14.8915 149.164 14.8828 149.121 14.8828H141.602C140.214 14.8828 138.884 15.4486 137.903 16.4557C136.922 17.4628 136.371 18.8287 136.371 20.2529V47.1034C136.371 48.5276 136.922 49.8935 137.903 50.9006C138.884 51.9077 140.214 52.4735 141.602 52.4735H159.909C161.296 52.4735 162.626 51.9077 163.607 50.9006C164.588 49.8935 165.139 48.5276 165.139 47.1034V31.3287C165.139 31.2847 165.131 31.241 165.114 31.2003C165.098 31.1596 165.074 31.1226 165.044 31.0914C165.013 31.0602 164.977 31.0355 164.937 31.0187C164.898 31.0018 164.855 30.9931 164.812 30.9931ZM157.293 44.4184H144.217C143.87 44.4184 143.538 44.2769 143.292 44.0251C143.047 43.7734 142.909 43.4319 142.909 43.0758C142.909 42.7198 143.047 42.3783 143.292 42.1265C143.538 41.8748 143.87 41.7333 144.217 41.7333H157.293C157.64 41.7333 157.973 41.8748 158.218 42.1265C158.463 42.3783 158.601 42.7198 158.601 43.0758C158.601 43.4319 158.463 43.7734 158.218 44.0251C157.973 44.2769 157.64 44.4184 157.293 44.4184ZM157.293 37.7057H144.217C143.87 37.7057 143.538 37.5643 143.292 37.3125C143.047 37.0607 142.909 36.7193 142.909 36.3632C142.909 36.0072 143.047 35.6657 143.292 35.4139C143.538 35.1621 143.87 35.0207 144.217 35.0207H157.293C157.64 35.0207 157.973 35.1621 158.218 35.4139C158.463 35.6657 158.601 36.0072 158.601 36.3632C158.601 36.7193 158.463 37.0607 158.218 37.3125C157.973 37.5643 157.64 37.7057 157.293 37.7057Z" fill="white"/>
<path d="M164.094 28.0219L152.341 15.9551C152.318 15.9317 152.289 15.9159 152.258 15.9094C152.226 15.903 152.193 15.9063 152.164 15.919C152.134 15.9316 152.108 15.953 152.09 15.9805C152.072 16.008 152.063 16.0403 152.062 16.0734V26.9654C152.063 27.3215 152.2 27.663 152.446 27.9147C152.691 28.1665 153.023 28.308 153.37 28.308H163.979C164.011 28.3078 164.043 28.2979 164.07 28.2795C164.096 28.261 164.117 28.2348 164.13 28.2043C164.142 28.1737 164.145 28.1401 164.139 28.1076C164.133 28.0751 164.117 28.0453 164.094 28.0219Z" fill="white"/>
<path d="M242.742 259.208C242.34 259.208 241.95 259.352 241.639 259.614C241.328 259.876 241.116 260.24 241.038 260.645C240.959 261.051 241.02 261.471 241.21 261.835C241.4 262.199 241.707 262.484 242.078 262.642C242.45 262.8 242.863 262.821 243.248 262.701C243.633 262.58 243.965 262.327 244.189 261.984C244.412 261.64 244.512 261.228 244.473 260.817C244.433 260.406 244.256 260.022 243.972 259.73C243.81 259.565 243.618 259.433 243.407 259.344C243.196 259.254 242.97 259.208 242.742 259.208Z" fill="white"/>
<path d="M252.42 252.071V252.065C252.365 251.817 252.243 251.59 252.069 251.409C251.895 251.228 251.675 251.101 251.434 251.042C249.493 250.556 246.44 251.074 243.056 252.465C239.802 253.763 236.825 255.699 234.291 258.163C233.598 258.87 232.955 259.626 232.366 260.426C231.064 260.333 229.759 260.549 228.551 261.055C224.79 262.754 223.716 267.103 223.43 268.888C223.389 269.142 223.405 269.402 223.477 269.648C223.55 269.894 223.677 270.12 223.848 270.308C224.02 270.495 224.231 270.64 224.465 270.73C224.7 270.82 224.952 270.854 225.201 270.828H225.21L229.399 270.358C229.404 270.413 229.41 270.463 229.415 270.509C229.468 271.033 229.696 271.523 230.059 271.895L232.104 273.995C232.466 274.369 232.942 274.603 233.453 274.658L233.593 274.673L233.137 278.969V278.978C233.115 279.196 233.135 279.417 233.196 279.627C233.257 279.838 233.358 280.034 233.493 280.204C233.628 280.374 233.794 280.516 233.982 280.62C234.17 280.725 234.377 280.79 234.589 280.813C234.639 280.818 234.69 280.821 234.74 280.822C234.831 280.822 234.921 280.814 235.01 280.799C236.759 280.51 240.993 279.421 242.643 275.539C243.133 274.303 243.343 272.969 243.259 271.637C244.041 271.034 244.78 270.373 245.47 269.661C247.869 267.084 249.757 264.051 251.027 260.733C252.374 257.298 252.882 254.14 252.42 252.071ZM245.447 263.765C244.912 264.315 244.23 264.69 243.487 264.842C242.745 264.994 241.975 264.917 241.275 264.619C240.576 264.322 239.978 263.819 239.557 263.173C239.136 262.527 238.911 261.767 238.911 260.99C238.91 260.213 239.134 259.453 239.555 258.806C239.975 258.16 240.573 257.656 241.272 257.358C241.971 257.06 242.741 256.982 243.483 257.133C244.226 257.284 244.908 257.658 245.444 258.207L245.447 258.21C246.164 258.936 246.572 259.924 246.579 260.958C246.587 261.992 246.194 262.987 245.487 263.724L245.447 263.765Z" fill="white"/>
<path d="M231.87 274.565C231.618 274.533 231.363 274.597 231.153 274.744C230.737 275.036 230.319 275.325 229.897 275.606C229.714 275.727 229.496 275.782 229.279 275.761C229.062 275.739 228.859 275.644 228.701 275.49C228.543 275.335 228.44 275.131 228.409 274.91C228.378 274.688 228.42 274.463 228.529 274.269L229.32 272.865C229.434 272.695 229.497 272.495 229.502 272.289C229.507 272.083 229.455 271.88 229.35 271.705C229.246 271.529 229.095 271.388 228.914 271.298C228.734 271.208 228.532 271.174 228.333 271.199C227.455 271.313 226.638 271.724 226.012 272.366C225.774 272.612 225.049 273.357 224.659 276.196C224.548 277.011 224.478 277.832 224.449 278.654C224.446 278.795 224.469 278.935 224.518 279.066C224.567 279.197 224.641 279.317 224.735 279.419C224.83 279.521 224.942 279.602 225.067 279.659C225.193 279.717 225.327 279.748 225.464 279.751C225.473 279.752 225.482 279.752 225.491 279.752H225.517C226.319 279.723 227.119 279.651 227.914 279.538C230.68 279.137 231.406 278.392 231.644 278.147C232.273 277.504 232.673 276.662 232.777 275.757C232.811 275.475 232.734 275.192 232.564 274.968C232.394 274.745 232.144 274.6 231.87 274.565Z" fill="white"/>
<path d="M68.9737 289.876H66.597C66.1242 289.876 65.6708 289.683 65.3365 289.339C65.0023 288.996 64.8145 288.531 64.8145 288.045V277.065C64.8145 276.58 65.0023 276.114 65.3365 275.771C65.6708 275.428 66.1242 275.235 66.597 275.235H68.9737C69.4464 275.235 69.8998 275.428 70.2341 275.771C70.5684 276.114 70.7562 276.58 70.7562 277.065V288.045C70.7562 288.531 70.5684 288.996 70.2341 289.339C69.8998 289.683 69.4464 289.876 68.9737 289.876Z" fill="white"/>
<path d="M85.6104 289.875H83.2337C82.761 289.875 82.3076 289.683 81.9733 289.339C81.639 288.996 81.4512 288.531 81.4512 288.045V269.745C81.4512 269.259 81.639 268.794 81.9733 268.451C82.3076 268.107 82.761 267.915 83.2337 267.915H85.6104C86.0832 267.915 86.5366 268.107 86.8709 268.451C87.2051 268.794 87.3929 269.259 87.3929 269.745V288.045C87.3929 288.531 87.2051 288.996 86.8709 289.339C86.5366 289.683 86.0832 289.875 85.6104 289.875Z" fill="white"/>
<path d="M93.9292 289.876H91.5525C91.0798 289.876 90.6264 289.683 90.2921 289.34C89.9578 288.997 89.77 288.531 89.77 288.046V261.205C89.77 260.719 89.9578 260.254 90.2921 259.911C90.6264 259.567 91.0798 259.375 91.5525 259.375H93.9292C94.402 259.375 94.8554 259.567 95.1897 259.911C95.524 260.254 95.7118 260.719 95.7118 261.205V288.046C95.7118 288.531 95.524 288.997 95.1897 289.34C94.8554 289.683 94.402 289.876 93.9292 289.876Z" fill="white"/>
<path d="M77.292 289.875H74.9153C74.4426 289.875 73.9892 289.683 73.6549 289.339C73.3206 288.996 73.1328 288.531 73.1328 288.045V255.104C73.1328 254.619 73.3206 254.153 73.6549 253.81C73.9892 253.467 74.4426 253.274 74.9153 253.274H77.292C77.7648 253.274 78.2182 253.467 78.5525 253.81C78.8868 254.153 79.0746 254.619 79.0746 255.104V288.045C79.0746 288.286 79.0285 288.524 78.9389 288.746C78.8493 288.968 78.718 289.169 78.5525 289.339C78.3869 289.509 78.1904 289.644 77.9742 289.736C77.7579 289.828 77.5261 289.875 77.292 289.875Z" fill="white"/>
<path d="M279.351 124.515L277.653 122.771C277.264 122.372 276.737 122.147 276.187 122.146C275.637 122.144 275.109 122.366 274.718 122.763L262.912 133.949C262.479 134.343 262.214 134.896 262.174 135.489C262.161 135.783 262.208 136.077 262.311 136.352C262.414 136.627 262.571 136.877 262.773 137.087L265.309 139.72L265.314 139.725C265.706 140.126 266.236 140.352 266.789 140.354H266.866C267.153 140.337 267.433 140.263 267.692 140.135C267.95 140.007 268.182 139.828 268.373 139.608L279.344 127.543C279.736 127.144 279.957 126.601 279.96 126.035C279.962 125.468 279.745 124.924 279.357 124.521L279.351 124.515Z" fill="white"/>
<path d="M292.998 120.991L292.978 120.97L290.749 118.705C290.619 118.572 290.464 118.466 290.293 118.394C290.123 118.322 289.94 118.286 289.756 118.287C289.457 118.287 289.166 118.384 288.924 118.564C288.924 118.535 288.928 118.507 288.93 118.482C289.02 117.897 288.899 117.299 288.591 116.798C288.101 116.119 287.561 115.477 286.979 114.879L286.973 114.874C285.344 113.269 283.43 112.001 281.334 111.139C280.238 110.677 279.066 110.44 277.882 110.441C276.349 110.427 274.86 110.963 273.671 111.955C273.332 112.287 273.024 112.65 272.749 113.038C272.617 113.225 272.548 113.45 272.551 113.68C272.554 113.91 272.629 114.132 272.765 114.315C272.902 114.498 273.092 114.63 273.307 114.693C273.523 114.756 273.752 114.745 273.962 114.664C274.144 114.594 274.33 114.535 274.52 114.488C274.914 114.402 275.318 114.377 275.719 114.411C276.552 114.5 277.349 114.801 278.04 115.285C278.428 115.62 278.736 116.041 278.942 116.517C279.148 116.992 279.245 117.509 279.228 118.029C278.939 118.873 278.498 119.654 277.927 120.331C277.775 120.537 277.701 120.792 277.718 121.05C277.736 121.308 277.843 121.551 278.022 121.733L280.259 124.031C280.447 124.224 280.701 124.336 280.967 124.344C281.233 124.352 281.492 124.254 281.69 124.072C282.323 123.492 283.287 122.617 283.624 122.403C283.912 122.205 284.238 122.073 284.58 122.015C284.834 121.99 285.091 122.045 285.314 122.174C285.315 122.186 285.314 122.197 285.31 122.208C285.307 122.219 285.301 122.229 285.294 122.238L285.175 122.353L285.156 122.372C284.893 122.641 284.745 123.006 284.744 123.387C284.743 123.768 284.89 124.134 285.152 124.404L285.159 124.411L287.387 126.675C287.518 126.809 287.673 126.914 287.843 126.986C288.014 127.058 288.196 127.094 288.381 127.092C288.751 127.093 289.106 126.944 289.371 126.679L292.98 123.018C292.992 123.006 293.005 122.992 293.016 122.979C293.258 122.706 293.391 122.35 293.388 121.981C293.384 121.612 293.245 121.258 292.998 120.991Z" fill="white"/>
<path d="M38.0115 123.392C37.754 123.392 37.5023 123.314 37.2881 123.167C37.074 123.02 36.9071 122.811 36.8086 122.567C36.71 122.323 36.6843 122.054 36.7345 121.795C36.7847 121.535 36.9087 121.297 37.0908 121.11L40.0763 118.045L37.0908 114.98C36.8466 114.729 36.7095 114.389 36.7095 114.035C36.7095 113.68 36.8466 113.34 37.0908 113.089C37.335 112.839 37.6662 112.698 38.0115 112.698C38.3568 112.698 38.688 112.839 38.9322 113.089L42.8384 117.1C42.9593 117.224 43.0552 117.371 43.1207 117.533C43.1861 117.696 43.2198 117.869 43.2198 118.045C43.2198 118.22 43.1861 118.394 43.1207 118.556C43.0552 118.719 42.9593 118.866 42.8384 118.99L38.9322 123.001C38.8114 123.125 38.6679 123.223 38.5099 123.291C38.3519 123.358 38.1825 123.392 38.0115 123.392Z" fill="white"/>
<path d="M17.1785 127.402C17.0075 127.402 16.8382 127.368 16.6803 127.301C16.5223 127.233 16.3787 127.135 16.2578 127.011C16.1369 126.887 16.041 126.739 15.9756 126.577C15.9101 126.415 15.8765 126.241 15.8765 126.066V124.729C15.8867 122.605 16.7125 120.572 18.1746 119.07C19.6367 117.568 21.6169 116.72 23.685 116.708H40.6158C40.9611 116.708 41.2923 116.849 41.5365 117.1C41.7807 117.35 41.9179 117.69 41.9179 118.045C41.9179 118.399 41.7807 118.739 41.5365 118.99C41.2923 119.241 40.9611 119.382 40.6158 119.382H23.6889C22.3094 119.39 20.9888 119.957 20.0137 120.958C19.0387 121.96 18.4878 123.317 18.4806 124.733V126.066C18.4806 126.241 18.4469 126.415 18.3815 126.577C18.3161 126.739 18.2202 126.887 18.0993 127.011C17.9783 127.135 17.8348 127.233 17.6768 127.301C17.5189 127.368 17.3495 127.402 17.1785 127.402Z" fill="white"/>
<path d="M27.595 138.097C27.424 138.097 27.2546 138.063 27.0966 137.995C26.9386 137.928 26.7951 137.83 26.6743 137.705L22.7681 133.695C22.6472 133.571 22.5513 133.423 22.4858 133.261C22.4204 133.099 22.3867 132.925 22.3867 132.75C22.3867 132.574 22.4204 132.4 22.4858 132.238C22.5513 132.076 22.6472 131.929 22.7681 131.804L26.6743 127.794C26.9186 127.544 27.2497 127.403 27.5948 127.403C27.9399 127.403 28.2708 127.544 28.5149 127.795C28.7589 128.045 28.896 128.385 28.8962 128.739C28.8964 129.094 28.7595 129.434 28.5157 129.684L25.5303 132.75L28.5157 135.815C28.6978 136.002 28.8218 136.24 28.872 136.499C28.9223 136.759 28.8965 137.027 28.7979 137.272C28.6994 137.516 28.5325 137.725 28.3184 137.872C28.1043 138.018 27.8525 138.097 27.595 138.097Z" fill="white"/>
<path d="M24.9905 134.086C24.6452 134.086 24.314 133.946 24.0698 133.695C23.8257 133.444 23.6885 133.104 23.6885 132.75C23.6885 132.395 23.8257 132.055 24.0698 131.804C24.314 131.554 24.6452 131.413 24.9905 131.413H41.9174C43.2969 131.404 44.6175 130.838 45.5926 129.836C46.5676 128.834 47.1185 127.478 47.1257 126.062V124.729C47.1257 124.374 47.2629 124.034 47.507 123.784C47.7512 123.533 48.0824 123.392 48.4278 123.392C48.7731 123.392 49.1043 123.533 49.3485 123.784C49.5927 124.034 49.7298 124.374 49.7298 124.729V126.066C49.7196 128.189 48.8938 130.222 47.4317 131.724C45.9696 133.226 43.9894 134.075 41.9213 134.087L24.9905 134.086Z" fill="white"/>
</g>
<defs>
<clipPath id="clip0_28_147">
<rect width="517.061" height="436" fill="white"/>
</clipPath>
</defs>
</svg>
